<svg width="112" height="30" viewBox="0 0 112 30" fill="none" xmlns="http://www.w3.org/2000/svg">
<path d="M2.27309 29.2794C1.68761 29.2794 1.23519 29.1198 0.91583 28.8004C0.596473 28.4544 0.436795 27.9754 0.436795 27.3633V2.73296C0.436795 2.12086 0.596473 1.65513 0.91583 1.33577C1.2618 1.01642 1.72753 0.856738 2.31301 0.856738H11.8139C14.8477 0.856738 17.1764 1.6019 18.7998 3.09223C20.4498 4.58256 21.2748 6.67168 21.2748 9.3596C21.2748 12.0741 20.4498 14.1766 18.7998 15.6669C17.1764 17.1572 14.8477 17.9024 11.8139 17.9024H4.14931V27.3633C4.14931 27.9754 3.98963 28.4544 3.67028 28.8004C3.37753 29.1198 2.91181 29.2794 2.27309 29.2794ZM4.14931 14.9084H11.3348C13.4106 14.9084 14.9675 14.4427 16.0054 13.5112C17.0699 12.5532 17.6022 11.1693 17.6022 9.3596C17.6022 7.54991 17.0699 6.19265 16.0054 5.2878C14.9675 4.35635 13.4106 3.89062 11.3348 3.89062H4.14931V14.9084ZM32.742 29.3593C30.8258 29.3593 29.1625 28.9468 27.752 28.1218C26.3415 27.2968 25.2504 26.1258 24.4786 24.6089C23.7069 23.0919 23.321 21.3088 23.321 19.2596C23.321 17.7161 23.5339 16.3322 23.9597 15.108C24.4121 13.8572 25.0508 12.7927 25.8758 11.9144C26.7008 11.0362 27.6855 10.3709 28.8299 9.91847C30.0008 9.43944 31.3049 9.19992 32.742 9.19992C34.6581 9.19992 36.3214 9.61242 37.7319 10.4374C39.1424 11.2624 40.2335 12.4334 41.0053 13.9503C41.7771 15.4407 42.163 17.2104 42.163 19.2596C42.163 20.8032 41.9368 22.2004 41.4844 23.4512C41.0585 24.702 40.4331 25.7665 39.6081 26.6447C38.7831 27.523 37.7851 28.2016 36.6142 28.6806C35.4698 29.1331 34.1791 29.3593 32.742 29.3593ZM32.742 26.4851C33.9129 26.4851 34.9242 26.2056 35.7759 25.6468C36.6541 25.0879 37.3194 24.2762 37.7718 23.2117C38.2509 22.1471 38.4904 20.8298 38.4904 19.2596C38.4904 16.9177 37.9714 15.1346 36.9335 13.9104C35.8956 12.6862 34.4984 12.0741 32.742 12.0741C31.5976 12.0741 30.5863 12.3536 29.7081 12.9124C28.8565 13.4447 28.1912 14.2431 27.7121 15.3076C27.2331 16.3721 26.9936 17.6895 26.9936 19.2596C26.9936 21.6016 27.5125 23.398 28.5504 24.6488C29.6149 25.873 31.0121 26.4851 32.742 26.4851ZM53.5229 29.3593C52.3253 29.3593 51.1144 29.2262 49.8902 28.9601C48.6926 28.6673 47.5616 28.175 46.4971 27.4831C46.2043 27.2968 45.9914 27.0706 45.8583 26.8044C45.7519 26.5117 45.712 26.2322 45.7386 25.9661C45.7918 25.6734 45.9116 25.4205 46.0979 25.2076C46.2842 24.9947 46.5104 24.875 46.7765 24.8484C47.0692 24.7951 47.3753 24.8617 47.6946 25.048C48.7325 25.6335 49.7305 26.046 50.6886 26.2855C51.6733 26.525 52.6447 26.6447 53.6027 26.6447C55.0664 26.6447 56.1709 26.3786 56.916 25.8464C57.6612 25.3141 58.0338 24.6089 58.0338 23.7306C58.0338 22.9855 57.781 22.4133 57.2753 22.0141C56.7963 21.5883 56.0378 21.2689 54.9999 21.056L51.2874 20.2975C49.6374 19.925 48.3866 19.3129 47.535 18.4612C46.71 17.583 46.2975 16.4653 46.2975 15.108C46.2975 13.9104 46.6168 12.8725 47.2555 11.9943C47.9209 11.0894 48.839 10.3975 50.01 9.91847C51.1809 9.43944 52.5249 9.19992 54.0418 9.19992C55.2128 9.19992 56.3173 9.3596 57.3552 9.67895C58.4197 9.9717 59.3778 10.4241 60.2294 11.0362C60.5487 11.2225 60.7483 11.462 60.8282 11.7548C60.9346 12.0209 60.9479 12.3003 60.8681 12.5931C60.8149 12.8592 60.6951 13.0854 60.5088 13.2717C60.3225 13.458 60.083 13.5778 59.7903 13.631C59.4975 13.6576 59.1782 13.5778 58.8322 13.3915C58.0604 12.8592 57.262 12.4866 56.437 12.2737C55.6386 12.0342 54.8402 11.9144 54.0418 11.9144C52.6047 11.9144 51.5136 12.1939 50.7684 12.7528C50.0499 13.3116 49.6906 14.0435 49.6906 14.9483C49.6906 15.6403 49.9035 16.2124 50.3293 16.6649C50.7818 17.1173 51.487 17.45 52.4451 17.6629L56.1576 18.4213C57.8874 18.7939 59.1915 19.3927 60.0697 20.2177C60.9479 21.0161 61.387 22.1072 61.387 23.4911C61.387 25.3008 60.6685 26.7379 59.2314 27.8024C57.8209 28.8403 55.9181 29.3593 53.5229 29.3593ZM73.9823 29.3593C72.4121 29.3593 71.0948 29.0798 70.0302 28.521C68.9923 27.9621 68.2073 27.1504 67.675 26.0859C67.1693 25.0214 66.9165 23.7173 66.9165 22.1738V12.3536H64.3617C63.8826 12.3536 63.5101 12.2338 63.2439 11.9943C62.9778 11.7282 62.8447 11.3822 62.8447 10.9564C62.8447 10.504 62.9778 10.158 63.2439 9.91847C63.5101 9.67895 63.8826 9.55919 64.3617 9.55919H66.9165V5.20797C66.9165 4.59587 67.0762 4.14345 67.3956 3.8507C67.7149 3.53135 68.1673 3.37167 68.7528 3.37167C69.3383 3.37167 69.7774 3.53135 70.0702 3.8507C70.3895 4.14345 70.5492 4.59587 70.5492 5.20797V9.55919H75.3795C75.8851 9.55919 76.271 9.67895 76.5371 9.91847C76.8033 10.158 76.9363 10.504 76.9363 10.9564C76.9363 11.3822 76.8033 11.7282 76.5371 11.9943C76.271 12.2338 75.8851 12.3536 75.3795 12.3536H70.5492V21.8544C70.5492 23.3181 70.8552 24.4226 71.4673 25.1677C72.0794 25.9129 73.0907 26.2855 74.5012 26.2855C75.0069 26.2855 75.4327 26.2456 75.7787 26.1657C76.1246 26.0593 76.4307 26.006 76.6968 26.006C76.9363 25.9794 77.1359 26.0593 77.2956 26.2456C77.4819 26.4318 77.575 26.7778 77.575 27.2835C77.575 27.656 77.5085 28.002 77.3754 28.3214C77.269 28.6141 77.0428 28.8137 76.6968 28.9202C76.3774 29.0266 75.9516 29.1198 75.4194 29.1996C74.8871 29.306 74.4081 29.3593 73.9823 29.3593Z" fill="#EC407A"/>
<path d="M83.5389 29.3593C82.368 29.3593 81.4631 29.0399 80.8244 28.4012C80.1857 27.7359 79.8663 26.8044 79.8663 25.6068V4.2499C79.8663 3.0257 80.1857 2.09424 80.8244 1.45553C81.4631 0.816819 82.368 0.497463 83.5389 0.497463C84.7365 0.497463 85.6414 0.816819 86.2535 1.45553C86.8922 2.09424 87.2115 3.0257 87.2115 4.2499V25.6068C87.2115 26.8044 86.9055 27.7359 86.2934 28.4012C85.6813 29.0399 84.7631 29.3593 83.5389 29.3593ZM95.3361 29.3593C94.2183 29.3593 93.3534 29.0532 92.7413 28.4411C92.1292 27.829 91.8232 26.9375 91.8232 25.7665V12.5532C91.8232 11.4088 92.1159 10.5306 92.7014 9.91847C93.3135 9.30637 94.1784 9.00032 95.2962 9.00032C96.4139 9.00032 97.2655 9.30637 97.851 9.91847C98.4365 10.5306 98.7293 11.4088 98.7293 12.5532V14.4294L98.2901 12.7927C98.9288 11.5419 99.8337 10.5838 101.005 9.91847C102.202 9.25314 103.56 8.92048 105.076 8.92048C106.647 8.92048 107.937 9.22653 108.949 9.83863C109.96 10.4241 110.718 11.3556 111.224 12.633C111.73 13.8838 111.983 15.4673 111.983 17.3834V25.7665C111.983 26.9375 111.676 27.829 111.064 28.4411C110.452 29.0532 109.574 29.3593 108.43 29.3593C107.285 29.3593 106.407 29.0532 105.795 28.4411C105.183 27.829 104.877 26.9375 104.877 25.7665V17.6629C104.877 16.4653 104.664 15.6137 104.238 15.108C103.839 14.6024 103.24 14.3495 102.442 14.3495C101.377 14.3495 100.526 14.6955 99.8869 15.3874C99.2482 16.0528 98.9288 16.9576 98.9288 18.102V25.7665C98.9288 28.1617 97.7313 29.3593 95.3361 29.3593Z" fill="#7B61FF"/>
</svg>